<svg class="svg-icon" style="width: 1em; height: 1em;vertical-align: middle;fill: currentColor;overflow: hidden;" viewBox="0 0 1024 1024" version="1.1" xmlns="http://www.w3.org/2000/svg"><path d="M926.9 431.4c-10.5-10.5-27.8-10.5-38.3 0-7 7-9.4 17-7 26 20.1 118.8-15.4 245.2-106.9 336.7-150.1 150.1-394.3 150.1-544.4 0C80.1 644 80.1 399.8 230.2 249.6c91.4-91.4 217.6-126.9 336.2-107 9.2 2.6 19.4 0.3 26.6-6.9 10.5-10.5 10.5-27.8 0-38.3-3-3-6.5-5.1-10.3-6.4 0-0.1 0.1-0.1 0.1-0.2-0.6-0.1-1.3-0.2-1.9-0.3-1.5-0.4-3-0.7-4.5-0.8-135.5-23.2-279.7 17-384.4 121.7-171.5 171.5-171.5 449.5 0 621s449.5 171.5 621 0c104.3-104.3 144.6-247.9 121.8-383.1-0.3-6.5-2.9-13-7.9-17.9z"  /><path d="M539.2 374.7c9.3 2.8 19.8 0.5 27.1-6.8 10.5-10.5 10.5-27.8 0-38.3-4.8-4.8-11-7.4-17.3-7.8-66.9-15.5-140 2.2-192.2 54.4-80.5 80.5-80.5 210.9 0 291.4s210.9 80.5 291.4 0c53.3-53.3 70.5-128.4 53.1-196.5-0.3-6.6-2.9-13.1-7.9-18.1-10.5-10.5-27.8-10.5-38.3 0-7.7 7.7-9.8 18.9-6.2 28.6l-0.1 0.1c13.9 50.9 1 107.7-38.9 147.6-59.2 59.2-155.6 59.2-214.8 0s-59.2-155.6 0-214.8c39-39 94.1-52.2 144.1-39.8z"  /><path d="M933.1 211.3H813v-120c0-14.9-12.2-27.1-27.1-27.1-7.5 0-14.3 3.1-19.3 8.1l-0.1 0.1-100.3 100.4c-4.9 4.9-8 11.7-8 19.1v138.6L500 488.7c-10.5 10.5-10.5 27.8 0 38.3 10.5 10.5 27.8 10.5 38.3 0l160.9-160.9h133.2c7.5 0 14.2-3.1 19.1-8l100.3-100.3 0.1-0.1c5-4.9 8.1-11.7 8.1-19.3 0.1-14.9-12.1-27.1-26.9-27.1zM821.2 312H712.4V203.2l46.5-46.5v81.7c0 14.9 12.2 27.1 27.1 27.1h81.7L821.2 312z"  /></svg>