<svg class="svg-icon" style="width: 1em; height: 1em;vertical-align: middle;fill: currentColor;overflow: hidden;" viewBox="0 0 1024 1024" version="1.1" xmlns="http://www.w3.org/2000/svg"><path d="M512 85.333333C234.88 85.333333 85.333333 283.178667 85.333333 469.333333c0 90.794667 43.050667 169.770667 128 234.965334V853.333333a42.666667 42.666667 0 0 0 42.666667 42.666667h512a42.666667 42.666667 0 0 0 42.666667-42.666667v-149.034666c84.949333-65.194667 128-144.170667 128-234.965334 0-186.154667-149.546667-384-426.666667-384z m231.594667 562.346667A42.666667 42.666667 0 0 0 725.333333 682.666667v128h-85.333333v-128h-85.333333v128h-85.333334v-128H384v128H298.666667v-128a42.666667 42.666667 0 0 0-18.261334-34.986667C207.573333 596.864 170.666667 536.874667 170.666667 469.333333c0-148.437333 117.248-298.666667 341.333333-298.666666s341.333333 150.229333 341.333333 298.666666c0 67.541333-36.906667 127.530667-109.738666 178.346667z" fill="" /><path d="M341.333333 469.333333m-85.333333 0a85.333333 85.333333 0 1 0 170.666667 0 85.333333 85.333333 0 1 0-170.666667 0Z" fill="" /><path d="M682.666667 469.333333m-85.333334 0a85.333333 85.333333 0 1 0 170.666667 0 85.333333 85.333333 0 1 0-170.666667 0Z" fill="" /></svg>